{
  "accessors": [
    {
      "bufferView": 2,
      "componentType": 5126,
      "count": 4,
      "max": [
        44.13330078125,
        74.114501953125,
        58.580501556396484
      ],
      "min": [
        41.474300384521484,
        73.04109954833984,
        50.263999938964844
      ],
      "type": "VEC3"
    },
    {
      "bufferView": 2,
      "byteOffset": 48,
      "componentType": 5126,
      "count": 4,
      "max": [
        0.3743026852607727,
        -0.927306592464447,
        -0.0
      ],
      "min": [
        0.3743026852607727,
        -0.927306592464447,
        -0.0
      ],
      "type": "VEC3"
    },
    {
      "bufferView": 1,
      "componentType": 5126,
      "count": 4,
      "max": [
        0.9994999766349792,
        0.9994999766349792
      ],
      "min": [
        0.0005000000237487257,
        0.0005000000237487257
      ],
      "type": "VEC2"
    },
    {
      "bufferView": 0,
      "componentType": 5125,
      "count": 6,
      "type": "SCALAR"
    },
    {
      "bufferView": 2,
      "byteOffset": 96,
      "componentType": 5126,
      "count": 972,
      "max": [
        113.47589874267578,
        120.84609985351563,
        14.229999542236328
      ],
      "min": [
        -154.5438995361328,
        -60.4640998840332,
        -89.78130340576172
      ],
      "type": "VEC3"
    },
    {
      "bufferView": 2,
      "byteOffset": 11760,
      "componentType": 5126,
      "count": 972,
      "max": [
        0.9883471727371216,
        0.9983440637588501,
        0.9996909499168396
      ],
      "min": [
        -0.9990596771240234,
        -0.9991613030433655,
        -0.5079139471054077
      ],
      "type": "VEC3"
    },
    {
      "bufferView": 1,
      "byteOffset": 32,
      "componentType": 5126,
      "count": 972,
      "max": [
        0.9435999989509583,
        0.9994999766349792
      ],
      "min": [
        0.000699999975040555,
        0.0005000000237487257
      ],
      "type": "VEC2"
    },
    {
      "bufferView": 0,
      "byteOffset": 24,
      "componentType": 5125,
      "count": 5517,
      "type": "SCALAR"
    },
    {
      "bufferView": 2,
      "byteOffset": 23424,
      "componentType": 5126,
      "count": 559,
      "max": [
        515.1486206054688,
        578.7000732421875,
        518.0637817382813
      ],
      "min": [
        -520.9791259765625,
        -457.4276123046875,
        -518.0637817382813
      ],
      "type": "VEC3"
    },
    {
      "bufferView": 2,
      "byteOffset": 30132,
      "componentType": 5126,
      "count": 559,
      "max": [
        1.0,
        1.0,
        1.0
      ],
      "min": [
        -1.0,
        -1.0,
        -1.0
      ],
      "type": "VEC3"
    },
    {
      "bufferView": 1,
      "byteOffset": 7808,
      "componentType": 5126,
      "count": 559,
      "max": [
        1.0,
        1.0
      ],
      "min": [
        0.0,
        -0.0
      ],
      "type": "VEC2"
    },
    {
      "bufferView": 0,
      "byteOffset": 22092,
      "componentType": 5125,
      "count": 2880,
      "type": "SCALAR"
    },
    {
      "bufferView": 2,
      "byteOffset": 36840,
      "componentType": 5126,
      "count": 26,
      "max": [
        92.44830322265625,
        198.96029663085938,
        24.00149917602539
      ],
      "min": [
        -175.71820068359375,
        -6.247700214385986,
        -3.5601999759674072
      ],
      "type": "VEC3"
    },
    {
      "bufferView": 2,
      "byteOffset": 37152,
      "componentType": 5126,
      "count": 26,
      "max": [
        0.8597694635391235,
        0.4435015022754669,
        0.9886491298675537
      ],
      "min": [
        -0.8626615405082703,
        -0.4451152980327606,
        -0.6987878680229187
      ],
      "type": "VEC3"
    },
    {
      "bufferView": 1,
      "byteOffset": 12280,
      "componentType": 5126,
      "count": 26,
      "max": [
        0.9986000061035156,
        0.4505999982357025
      ],
      "min": [
        0.00139999995008111,
        0.0010999999940395355
      ],
      "type": "VEC2"
    },
    {
      "bufferView": 0,
      "byteOffset": 33612,
      "componentType": 5125,
      "count": 72,
      "type": "SCALAR"
    },
    {
      "bufferView": 2,
      "byteOffset": 37464,
      "componentType": 5126,
      "count": 1545,
      "max": [
        34.77799987792969,
        104.35990142822266,
        36.15010070800781
      ],
      "min": [
        -79.58460235595703,
        0.8036999702453613,
        -4.449699878692627
      ],
      "type": "VEC3"
    },
    {
      "bufferView": 2,
      "byteOffset": 56004,
      "componentType": 5126,
      "count": 1545,
      "max": [
        0.9803214073181152,
        0.9566965103149414,
        0.9828577041625977
      ],
      "min": [
        -0.9601868391036987,
        -0.9665737152099609,
        -0.9828606247901917
      ],
      "type": "VEC3"
    },
    {
      "bufferView": 1,
      "byteOffset": 12488,
      "componentType": 5126,
      "count": 1545,
      "max": [
        0.9793999791145325,
        0.9997000098228455
      ],
      "min": [
        0.0003000000142492354,
        0.0003000000142492354
      ],
      "type": "VEC2"
    },
    {
      "bufferView": 0,
      "byteOffset": 33900,
      "componentType": 5125,
      "count": 3384,
      "type": "SCALAR"
    },
    {
      "bufferView": 2,
      "byteOffset": 74544,
      "componentType": 5126,
      "count": 159,
      "max": [
        47.41429901123047,
        88.2500991821289,
        52.97779846191406
      ],
      "min": [
        34.069400787353516,
        71.32150268554688,
        2.2197999954223633
      ],
      "type": "VEC3"
    },
    {
      "bufferView": 2,
      "byteOffset": 76452,
      "componentType": 5126,
      "count": 159,
      "max": [
        0.974474310874939,
        0.9830449223518372,
        0.9925053119659424
      ],
      "min": [
        -0.9701430201530457,
        -0.9219042658805847,
        -0.9092217087745667
      ],
      "type": "VEC3"
    },
    {
      "bufferView": 1,
      "byteOffset": 24848,
      "componentType": 5126,
      "count": 159,
      "max": [
        0.7784000039100647,
        0.9898999929428101
      ],
      "min": [
        0.0010999999940395355,
        0.0012000000569969416
      ],
      "type": "VEC2"
    },
    {
      "bufferView": 0,
      "byteOffset": 47436,
      "componentType": 5125,
      "count": 471,
      "type": "SCALAR"
    },
    {
      "bufferView": 2,
      "byteOffset": 78360,
      "componentType": 5126,
      "count": 2175,
      "max": [
        47.085201263427734,
        100.3052978515625,
        52.86920166015625
      ],
      "min": [
        -66.4896011352539,
        5.123799800872803,
        0.43860000371932983
      ],
      "type": "VEC3"
    },
    {
      "bufferView": 2,
      "byteOffset": 104460,
      "componentType": 5126,
      "count": 2175,
      "max": [
        0.9882628917694092,
        0.9885101318359375,
        0.9967197179794312
      ],
      "min": [
        -0.9882099032402039,
        -0.9877092838287354,
        -0.9967047572135925
      ],
      "type": "VEC3"
    },
    {
      "bufferView": 1,
      "byteOffset": 26120,
      "componentType": 5126,
      "count": 2175,
      "max": [
        0.9984999895095825,
        0.9900000095367432
      ],
      "min": [
        0.0013000000035390258,
        0.05000000074505806
      ],
      "type": "VEC2"
    },
    {
      "bufferView": 0,
      "byteOffset": 49320,
      "componentType": 5125,
      "count": 10584,
      "type": "SCALAR"
    }
  ],
  "asset": {
    "extras": {
      "author": "ruslans3d (https://sketchfab.com/ruslans3d)",
      "license": "CC-BY-4.0 (http://creativecommons.org/licenses/by/4.0/)",
      "source": "https://sketchfab.com/3d-models/van-gogh-bible-e624813ef5384e66b276e93175a7b85e",
      "title": "Van gogh Bible"
    },
    "generator": "Sketchfab-12.64.0",
    "version": "2.0"
  },
  "bufferViews": [
    {
      "buffer": 0,
      "byteLength": 91656,
      "name": "floatBufferViews",
      "target": 34963
    },
    {
      "buffer": 0,
      "byteLength": 43520,
      "byteOffset": 91656,
      "byteStride": 8,
      "name": "floatBufferViews",
      "target": 34962
    },
    {
      "buffer": 0,
      "byteLength": 130560,
      "byteOffset": 135176,
      "byteStride": 12,
      "name": "floatBufferViews",
      "target": 34962
    }
  ],
  "buffers": [
    {
      "byteLength": 265736,
      "uri": "scene.bin"
    }
  ],
  "extensionsUsed": [
    "KHR_materials_unlit"
  ],
  "images": [
    {
      "uri": "textures/01___Def_baseColor.jpeg"
    },
    {
      "uri": "textures/01___Defaultdddfrrssdfff_baseColor.png"
    },
    {
      "uri": "textures/01___Defaultdddfrrssdfff_emissive.png"
    },
    {
      "uri": "textures/01___Defaultdsdddfffd_baseColor.jpeg"
    },
    {
      "uri": "textures/01___Defaultdsdddpfffd_baseColor.jpeg"
    },
    {
      "uri": "textures/01___Defd_baseColor.jpeg"
    }
  ],
  "materials": [
    {
      "doubleSided": true,
      "emissiveTexture": {
        "index": 0
      },
      "extensions": {
        "KHR_materials_unlit": {}
      },
      "name": "01___Def",
      "pbrMetallicRoughness": {
        "baseColorTexture": {
          "index": 0
        },
        "metallicFactor": 0.0
      }
    },
    {
      "alphaMode": "BLEND",
      "doubleSided": true,
      "emissiveTexture": {
        "index": 2
      },
      "extensions": {
        "KHR_materials_unlit": {}
      },
      "name": "01___Defaultdddfrrssdfff",
      "pbrMetallicRoughness": {
        "baseColorTexture": {
          "index": 1
        },
        "metallicFactor": 0.0
      }
    },
    {
      "doubleSided": true,
      "emissiveTexture": {
        "index": 3
      },
      "extensions": {
        "KHR_materials_unlit": {}
      },
      "name": "01___Defaultdsdddfffd",
      "pbrMetallicRoughness": {
        "baseColorTexture": {
          "index": 3
        },
        "metallicFactor": 0.0
      }
    },
    {
      "doubleSided": true,
      "emissiveTexture": {
        "index": 4
      },
      "extensions": {
        "KHR_materials_unlit": {}
      },
      "name": "01___Defaultdsdddpfffd",
      "pbrMetallicRoughness": {
        "baseColorTexture": {
          "index": 4
        },
        "metallicFactor": 0.0
      }
    },
    {
      "doubleSided": true,
      "emissiveTexture": {
        "index": 5
      },
      "extensions": {
        "KHR_materials_unlit": {}
      },
      "name": "01___Defd",
      "pbrMetallicRoughness": {
        "baseColorTexture": {
          "index": 5
        },
        "metallicFactor": 0.0
      }
    },
    {
      "doubleSided": true,
      "extensions": {
        "KHR_materials_unlit": {}
      },
      "name": "10___Default",
      "pbrMetallicRoughness": {
        "baseColorFactor": [
          0.0,
          0.0,
          0.0,
          1.0
        ],
        "metallicFactor": 0.0
      }
    }
  ],
  "meshes": [
    {
      "name": "Object_0",
      "primitives": [
        {
          "attributes": {
            "NORMAL": 1,
            "POSITION": 0,
            "TEXCOORD_0": 2
          },
          "indices": 3,
          "material": 1,
          "mode": 4
        }
      ]
    },
    {
      "name": "Object_1",
      "primitives": [
        {
          "attributes": {
            "NORMAL": 5,
            "POSITION": 4,
            "TEXCOORD_0": 6
          },
          "indices": 7,
          "material": 3,
          "mode": 4
        }
      ]
    },
    {
      "name": "Object_2",
      "primitives": [
        {
          "attributes": {
            "NORMAL": 9,
            "POSITION": 8,
            "TEXCOORD_0": 10
          },
          "indices": 11,
          "material": 5,
          "mode": 4
        }
      ]
    },
    {
      "name": "Object_3",
      "primitives": [
        {
          "attributes": {
            "NORMAL": 13,
            "POSITION": 12,
            "TEXCOORD_0": 14
          },
          "indices": 15,
          "material": 0,
          "mode": 4
        }
      ]
    },
    {
      "name": "Object_4",
      "primitives": [
        {
          "attributes": {
            "NORMAL": 17,
            "POSITION": 16,
            "TEXCOORD_0": 18
          },
          "indices": 19,
          "material": 2,
          "mode": 4
        }
      ]
    },
    {
      "name": "Object_5",
      "primitives": [
        {
          "attributes": {
            "NORMAL": 21,
            "POSITION": 20,
            "TEXCOORD_0": 22
          },
          "indices": 23,
          "material": 4,
          "mode": 4
        }
      ]
    },
    {
      "name": "Object_6",
      "primitives": [
        {
          "attributes": {
            "NORMAL": 25,
            "POSITION": 24,
            "TEXCOORD_0": 26
          },
          "indices": 27,
          "material": 4,
          "mode": 4
        }
      ]
    }
  ],
  "nodes": [
    {
      "children": [
        1
      ],
      "matrix": [
        1.0,
        0.0,
        0.0,
        0.0,
        0.0,
        2.220446049250313e-16,
        -1.0,
        0.0,
        0.0,
        1.0,
        2.220446049250313e-16,
        0.0,
        0.0,
        0.0,
        0.0,
        1.0
      ],
      "name": "Sketchfab_model"
    },
    {
      "children": [
        2,
        3,
        4,
        5,
        6,
        7,
        8
      ],
      "name": "Van gogh Bible.obj.cleaner"
    },
    {
      "mesh": 0,
      "name": "Object_2"
    },
    {
      "mesh": 1,
      "name": "Object_3"
    },
    {
      "mesh": 2,
      "name": "Object_4"
    },
    {
      "mesh": 3,
      "name": "Object_5"
    },
    {
      "mesh": 4,
      "name": "Object_6"
    },
    {
      "mesh": 5,
      "name": "Object_7"
    },
    {
      "mesh": 6,
      "name": "Object_8"
    }
  ],
  "samplers": [
    {
      "magFilter": 9729,
      "minFilter": 9987,
      "wrapS": 10497,
      "wrapT": 10497
    }
  ],
  "scene": 0,
  "scenes": [
    {
      "name": "Sketchfab_Scene",
      "nodes": [
        0
      ]
    }
  ],
  "textures": [
    {
      "sampler": 0,
      "source": 0
    },
    {
      "sampler": 0,
      "source": 1
    },
    {
      "sampler": 0,
      "source": 2
    },
    {
      "sampler": 0,
      "source": 3
    },
    {
      "sampler": 0,
      "source": 4
    },
    {
      "sampler": 0,
      "source": 5
    }
  ]
}
