
<svg xmlns="http://www.w3.org/2000/svg" xmlns:xlink="http://www.w3.org/1999/xlink" viewBox="0 0 95.481 94.96506413497035" height="94.96506413497035" width="95.481" data-background-color="#ffffff" preserveAspectRatio="xMidYMid meet" id="tight-bounds"><g><svg viewBox="0 0 95.481 94.96506413497035" height="94.96506413497035" width="95.481"><g><svg viewBox="0 0 95.481 94.96506413497035" height="94.96506413497035" width="95.481"><g id="textblocktransform"><svg viewBox="0 0 95.481 94.96506413497035" height="94.96506413497035" width="95.481" id="textblock"><g><svg viewBox="0 0 95.481 94.96506413497035" height="94.96506413497035" width="95.481"><g><svg viewBox="0 0 95.481 94.96506413497035" height="94.96506413497035" width="95.481"><g><svg xmlns="http://www.w3.org/2000/svg" data-name="Layer 1" viewBox="9.576756477355957 9.79994010925293 80.83688354492188 80.40007781982422" x="0" y="0" height="94.96506413497035" width="95.481" class="icon-icon-0" data-fill-palette-color="accent" id="icon-0"><path d="M66 45.72a2.32 2.32 0 0 0 1.62-0.66L82.36 30.83a12.57 12.57 0 0 0 0-17.42 10.43 10.43 0 0 0-7.56-3.17h-0.08A13.32 13.32 0 0 0 66 13.64c-2.79-2.55-5.42-3.84-7.83-3.84a11.84 11.84 0 0 0-8.54 3.6 12.55 12.55 0 0 0 0 17.44L64.38 45.07A2.32 2.32 0 0 0 66 45.72ZM51.07 14.8a9.86 9.86 0 0 1 7.11-3c2 0 4.46 1.34 7.05 3.86a1.11 1.11 0 0 0 1.56 0 11.52 11.52 0 0 1 8-3.42 8.47 8.47 0 0 1 6.14 2.57 10.57 10.57 0 0 1 0 14.61L66.23 43.63a0.32 0.32 0 0 1-0.46 0l-14.7-14.2A10.53 10.53 0 0 1 51.07 14.8Z" fill="#ffffff" data-fill-palette-color="accent"/><path d="M88.75 54.37a5.93 5.93 0 0 0-8.31-0.18L65.2 68.61 49.87 70.38l-3.35-4.73L58.44 62.4A5.81 5.81 0 0 0 56.18 51l-22.74 2.9a7 7 0 0 0-3.95 1.68L9.93 72.52A1 1 0 0 0 9.88 74L25.8 89.91a1 1 0 0 0 0.71 0.29h0a1 1 0 0 0 0.71-0.31l6-6.21 31.31-0.12a7 7 0 0 0 4.87-2L88.64 62.71A5.92 5.92 0 0 0 88.75 54.37Zm-1.51 6.9L68 80.14a5 5 0 0 1-3.48 1.43l-31.74 0.12A1 1 0 0 0 32 82l-5.55 5.78L12 73.33 30.79 57.12a5 5 0 0 1 2.85-1.2L56.43 53a3.81 3.81 0 0 1 1.48 7.46L44.62 64.09a1 1 0 0 0-0.55 1.54L48.58 72a1 1 0 0 0 0.93 0.42l16.25-1.87a1 1 0 0 0 0.57-0.27L81.82 55.64a3.91 3.91 0 0 1 5.42 5.63Z" fill="#ffffff" data-fill-palette-color="accent"/></svg></g></svg></g></svg></g></svg></g></svg></g></svg></g><defs/></svg>